<svg version="1.1" xmlns="http://www.w3.org/2000/svg" xmlns:xlink="http://www.w3.org/1999/xlink" width="144.25" height="137.22889" viewBox="0,0,144.25,137.22889"><defs><linearGradient x1="240" y1="111.38559" x2="240" y2="248.61448" gradientUnits="userSpaceOnUse" id="color-1"><stop offset="0" stop-color="#dcddee"/><stop offset="1" stop-color="#b1b2b0"/></linearGradient><radialGradient cx="176.725" cy="240.0417" r="3.72745" gradientUnits="userSpaceOnUse" id="color-2"><stop offset="0" stop-color="#9b9b9b"/><stop offset="1" stop-color="#949494"/></radialGradient><radialGradient cx="295.725" cy="240.0417" r="3.72746" gradientUnits="userSpaceOnUse" id="color-3"><stop offset="0" stop-color="#9b9b9b"/><stop offset="1" stop-color="#949494"/></radialGradient><radialGradient cx="303.30331" cy="143.70835" r="3.72745" gradientUnits="userSpaceOnUse" id="color-4"><stop offset="0" stop-color="#9b9b9b"/><stop offset="1" stop-color="#949494"/></radialGradient><radialGradient cx="303.68286" cy="232.93057" r="3.72745" gradientUnits="userSpaceOnUse" id="color-5"><stop offset="0" stop-color="#9b9b9b"/><stop offset="1" stop-color="#949494"/></radialGradient></defs><g transform="translate(-167.875,-111.38558)"><g stroke="none" stroke-miterlimit="10"><g><path d="M167.875,248.61448v-137.22889h144.25v137.22889z" fill="url(#color-1)" stroke-width="0"/><path d="M167.875,248.61448l144.25,-137.22889v137.22889z" fill="#818181" stroke-width="0"/><path d="M168.875,247.29169v-134.58333h142.25v134.58333z" fill="#01017e" stroke-width="0"/><path d="M168.875,247.2917v-123.24999h142.25v123.24999z" fill="#a8a8d5" stroke-width="0"/><path d="M168.875,247.2917v-122.36111h142.25v122.36111z" fill="#bfbfc1" stroke-width="0"/><path d="M171.875,243.51058v-104.53625h136.25l-134.41539,104.58566z" fill="#949494" stroke-width="0"/><path d="M172.97255,243.60904v-103.5514h134.05491v103.5514z" fill="#ffffff" stroke-width="0"/><path d="M172.97255,243.60904v-7.13473h134.05491v7.13473z" fill="#dfdfdf" stroke-width="0"/><path d="M172.97255,243.60907v-1.25973h134.05491v1.25973z" fill="#cacaca" stroke-width="0"/><g stroke-width="0"><path d="M172.99755,243.60904v-7.13473h7.45491v7.13473z" fill="url(#color-2)"/><path d="M172.99755,243.04089v-6.511h6.67713v6.511z" fill="#bdbdbd"/><path d="M174.80834,239.8965l3.05556,-2.27778v4.33333z" fill="#7d7d7d"/><path d="M172.99755,243.04089v-6.511h0.97745v6.511z" fill="#cacaca"/></g><path d="M306.98179,243.56915h-7.13473v-103.5514h7.13473z" fill="#dfdfdf" stroke-width="0"/><path d="M299.49099,245.74698v-9.27265h9.27265v9.27265z" fill="#bfbfc1" stroke-width="0"/><g stroke-width="0"><path d="M291.99755,243.60907v-7.13473h7.45491v7.13473z" fill="url(#color-3)"/><path d="M291.99755,243.04089v-6.511h6.67713v6.511z" fill="#bdbdbd"/><path d="M294.19723,242.20837v-4.33334l3.05556,2.27778z" fill="#7d7d7d"/><path d="M291.99755,243.04089v-6.511h0.97746v6.511z" fill="#cacaca"/></g><g stroke-width="0"><path d="M299.57586,147.27572v-7.13474h7.45491v7.13474z" fill="url(#color-4)"/><path d="M299.57586,146.70754v-6.511h6.67713v6.511z" fill="#bdbdbd"/><path d="M303.13665,141.59094l2.27778,3.05556h-4.33334z" fill="#7d7d7d"/><path d="M299.57586,146.70754v-6.511h0.97746v6.511z" fill="#cacaca"/></g><g stroke-width="0"><path d="M299.95541,236.49795v-7.13473h7.45491v7.13473z" fill="url(#color-5)"/><path d="M299.95541,235.92976v-6.51101h6.67713v6.51101z" fill="#bdbdbd"/><path d="M301.46064,231.3687h4.33334l-2.27778,3.05556z" fill="#7d7d7d"/><path d="M299.95541,235.92976v-6.51101h0.97746v6.51101z" fill="#cacaca"/></g><g stroke-width="0"><g><path d="M300.6625,121.58675v-7h7v7z" fill="#c1c1b7"/><g fill="#5f636d"><path d="M306.32695,120.64925l-4.72694,-4.72694l0.39806,-0.39806l4.72694,4.72694z"/><path d="M306.725,115.9223l-4.72694,4.72694l-0.39806,-0.39806l4.72694,-4.72694z"/></g></g><g><path d="M283.7875,121.58675v-7h14.375v7z" fill="#c1c1b7"/><path d="M290.50625,121.46175v-6.875h0.9375v6.875z" fill="#a4a49f"/><path d="M289.7875,119.83675v0.75h-4.875v-0.75z" fill="#5f636d"/><g><path d="M292.1625,120.64925v-5.125h5.125v5.125z" fill="#5f636d"/><path d="M292.64297,120.16878v-3.41667h4.16406v3.41667z" fill="#c1c1b7"/></g></g></g><text transform="translate(171.22255,119.62341) scale(0.14369,0.13319)" font-size="40" xml:space="preserve" fill="#bebee7" stroke-width="1" font-family="Sans Serif" font-weight="normal" text-anchor="start"><tspan x="0" dy="0">Notepad</tspan></text><text transform="translate(176.725,149.3827) scale(0.15265,0.17279)" font-size="40" xml:space="preserve" fill="#4b4b4b" stroke-width="1" font-family="&quot;Microsoft Sans Serif&quot;, Sans Serif" font-weight="normal" text-anchor="start"><tspan x="0" dy="0">Text</tspan></text></g></g></g></svg>