<svg version="1.1" xmlns="http://www.w3.org/2000/svg" xmlns:xlink="http://www.w3.org/1999/xlink" width="244.23075" height="71.84466" viewBox="0,0,244.23075,71.84466"><defs><linearGradient x1="190.00963" y1="144.07767" x2="190.00963" y2="281.30656" gradientUnits="userSpaceOnUse" id="color-1"><stop offset="0" stop-color="#dcddee"/><stop offset="1" stop-color="#b1b2b0"/></linearGradient><radialGradient cx="126.73463" cy="272.73378" r="3.72745" gradientUnits="userSpaceOnUse" id="color-2"><stop offset="0" stop-color="#9b9b9b"/><stop offset="1" stop-color="#949494"/></radialGradient><radialGradient cx="245.73463" cy="272.73378" r="3.72746" gradientUnits="userSpaceOnUse" id="color-3"><stop offset="0" stop-color="#9b9b9b"/><stop offset="1" stop-color="#949494"/></radialGradient><radialGradient cx="253.31294" cy="176.40044" r="3.72745" gradientUnits="userSpaceOnUse" id="color-4"><stop offset="0" stop-color="#9b9b9b"/><stop offset="1" stop-color="#949494"/></radialGradient><radialGradient cx="253.69249" cy="265.62266" r="3.72745" gradientUnits="userSpaceOnUse" id="color-5"><stop offset="0" stop-color="#9b9b9b"/><stop offset="1" stop-color="#949494"/></radialGradient></defs><g transform="translate(-117.88463,-144.07767)"><g stroke="none" stroke-miterlimit="10"><path d="M117.88463,215.92233v-71.84466h244.23075v71.84466z" fill="url(#color-1)" stroke-width="0"/><path d="M117.88463,215.92233l244.23075,-71.84466v71.84466z" fill="#818181" stroke-width="0"/><path d="M118.88463,214.59954v-69.1991h242.23075v69.1991z" fill="#01017e" stroke-width="0"/><path d="M118.88463,214.59955v-57.86576h242.23075v57.86576z" fill="#a8a8d5" stroke-width="0"/><path d="M118.88463,214.59955v-56.97688h242.23075v56.97688z" fill="#bfbfc1" stroke-width="0"/><path d="M121.88463,210.81843v-39.15202h236.23075l-234.39614,39.20143z" fill="#949494" stroke-width="0"/><path d="M122.98218,210.9169v-38.16717h234.03566v38.16717z" fill="#ffffff" stroke-width="0"/><path d="M122.98218,210.9169v-7.13473h234.03566v7.13473z" fill="#dfdfdf" stroke-width="0"/><path d="M122.98218,210.91692v-1.25973h234.03566v1.25973z" fill="#cacaca" stroke-width="0"/><g stroke-width="0"><path d="M123.00718,210.9169v-7.13473h7.45491v7.13473z" fill="url(#color-2)"/><path d="M123.00718,210.34874v-6.511h6.67713v6.511z" fill="#bdbdbd"/><path d="M124.81797,207.20435l3.05556,-2.27778v4.33333z" fill="#7d7d7d"/><path d="M123.00718,210.34874v-6.511h0.97745v6.511z" fill="#cacaca"/></g><path d="M356.97216,210.877h-7.13473v-38.16717h7.13473z" fill="#dfdfdf" stroke-width="0"/><path d="M349.48136,213.05483v-9.27265h9.27265v9.27265z" fill="#bfbfc1" stroke-width="0"/><g stroke-width="0"><path d="M341.98792,210.91692v-7.13473h7.45491v7.13473z" fill="url(#color-3)"/><path d="M341.98792,210.34874v-6.511h6.67713v6.511z" fill="#bdbdbd"/><path d="M344.1876,209.51622v-4.33334l3.05556,2.27778z" fill="#7d7d7d"/><path d="M341.98792,210.34874v-6.511h0.97746v6.511z" fill="#cacaca"/></g><g stroke-width="0"><path d="M349.56623,179.9678v-7.13474h7.45491v7.13474z" fill="url(#color-4)"/><path d="M349.56623,179.39963v-6.511h6.67713v6.511z" fill="#bdbdbd"/><path d="M353.12702,174.28302l2.27778,3.05556h-4.33334z" fill="#7d7d7d"/><path d="M349.56623,179.39963v-6.511h0.97746v6.511z" fill="#cacaca"/></g><g stroke-width="0"><path d="M349.94578,203.8058v-7.13473h7.45491v7.13473z" fill="url(#color-5)"/><path d="M349.94578,203.23762v-6.51101h6.67713v6.51101z" fill="#bdbdbd"/><path d="M351.45101,198.67656h4.33334l-2.27778,3.05556z" fill="#7d7d7d"/><path d="M349.94578,203.23762v-6.51101h0.97746v6.51101z" fill="#cacaca"/></g><g stroke-width="0"><g><path d="M350.65287,154.27883v-7h7v7z" fill="#c1c1b7"/><g fill="#5f636d"><path d="M356.31732,153.34133l-4.72694,-4.72694l0.39806,-0.39806l4.72694,4.72694z"/><path d="M356.71537,148.61438l-4.72694,4.72694l-0.39806,-0.39806l4.72694,-4.72694z"/></g></g><g><path d="M333.77787,154.27883v-7h14.375v7z" fill="#c1c1b7"/><path d="M340.49662,154.15383v-6.875h0.9375v6.875z" fill="#a4a49f"/><path d="M339.77787,152.52883v0.75h-4.875v-0.75z" fill="#5f636d"/><g><path d="M342.15287,153.34133v-5.125h5.125v5.125z" fill="#5f636d"/><path d="M342.63334,152.86086v-3.41667h4.16406v3.41667z" fill="#c1c1b7"/></g></g></g><text transform="translate(121.23218,152.31549) scale(0.14369,0.13319)" font-size="40" xml:space="preserve" fill="#bebee7" stroke-width="1" font-family="Sans Serif" font-weight="normal" text-anchor="start"><tspan x="0" dy="0">intro.txt</tspan></text><text transform="translate(124.81156,181.11326) scale(0.15265,0.17279)" font-size="40" xml:space="preserve" fill="#4b4b4b" stroke-width="1" font-family="&quot;Microsoft Sans Serif&quot;, Sans Serif" font-weight="normal" text-anchor="start"><tspan x="0" dy="0">HI!!!!!! welcome to my website im burgerpan but some peple now me as not_cool</tspan><tspan x="0" dy="48px">404 </tspan><tspan x="0" dy="48px"> </tspan><tspan x="0" dy="48px"> </tspan></text></g></g></svg>